<?xml version="1.0" encoding="UTF-8" standalone="no"?>
<svg
   version="1.1"
   width="1000"
   height="1000"
   viewBox="0 0 1000 1000"
   id="svg64"
   sodipodi:docname="logo_white_transparent.svg"
   inkscape:export-filename="/home/lukas/Downloads/logo-sphinx.png"
   inkscape:export-xdpi="1152"
   inkscape:export-ydpi="1152"
   inkscape:version="1.2.2 (b0a8486541, 2022-12-01)"
   xmlns:inkscape="http://www.inkscape.org/namespaces/inkscape"
   xmlns:sodipodi="http://sodipodi.sourceforge.net/DTD/sodipodi-0.dtd"
   xmlns="http://www.w3.org/2000/svg"
   xmlns:svg="http://www.w3.org/2000/svg">
  <defs
     id="defs68">
    <defs
       id="defs53" />
  </defs>
  <sodipodi:namedview
     id="namedview66"
     pagecolor="#ffffff"
     bordercolor="#666666"
     borderopacity="1.0"
     inkscape:pageshadow="2"
     inkscape:pageopacity="0.0"
     inkscape:pagecheckerboard="true"
     showgrid="false"
     inkscape:zoom="2.4692169"
     inkscape:cx="532.35502"
     inkscape:cy="392.63461"
     inkscape:window-width="2494"
     inkscape:window-height="1371"
     inkscape:window-x="0"
     inkscape:window-y="0"
     inkscape:window-maximized="1"
     inkscape:current-layer="svg64"
     inkscape:showpageshadow="2"
     inkscape:deskcolor="#d1d1d1" />
  <g
     id="g28"
     transform="translate(128.84589,355.38532)"
     style="fill:#ffffff">
    <svg
       viewBox="0 0 395.52 248.17079"
       height="248.17079"
       width="395.51999"
       version="1.1"
       id="svg26"
       style="fill:#ffffff">
      <g
         id="g15"
         style="fill:#ffffff">
        <svg
           viewBox="0 0 395.52 156.75416"
           height="156.75415"
           width="395.51999"
           version="1.1"
           id="svg13"
           style="fill:#ffffff">
          <g
             id="g11"
             style="fill:#ffffff">
            <svg
               width="395.51999"
               viewBox="4.9999995 -39.050003 106.09999 39.050003"
               height="156.75415"
               data-palette-color="#ffffff"
               version="1.1"
               id="svg9"
               style="fill:#ffffff">
              <svg
                 version="1.1"
                 id="svg4"
                 width="100%"
                 height="100%"
                 style="fill:#ffffff" />
              <g
                 class="undefined-text-0"
                 data-fill-palette-color="primary"
                 id="text-0"
                 style="fill:#ffffff">
                <path
                   d="M 6.95,0 V 0 C 6.383,0 5.917,-0.183 5.55,-0.55 5.183,-0.917 5,-1.383 5,-1.95 v 0 -35.15 c 0,-0.567 0.183,-1.033 0.55,-1.4 0.367,-0.367 0.833,-0.55 1.4,-0.55 v 0 c 0.567,0 1.033,0.183 1.4,0.55 0.367,0.367 0.55,0.833 0.55,1.4 v 0 15.6 h 24.4 v -15.6 c 0,-0.567 0.183,-1.033 0.55,-1.4 0.367,-0.367 0.833,-0.55 1.4,-0.55 v 0 c 0.567,0 1.033,0.183 1.4,0.55 0.367,0.367 0.55,0.833 0.55,1.4 v 0 35.15 c 0,0.567 -0.183,1.033 -0.55,1.4 C 36.283,-0.183 35.817,0 35.25,0 v 0 c -0.567,0 -1.033,-0.183 -1.4,-0.55 -0.367,-0.367 -0.55,-0.833 -0.55,-1.4 v 0 V -18 H 8.9 v 16.05 c 0,0.567 -0.183,1.033 -0.55,1.4 C 7.983,-0.183 7.517,0 6.95,0 Z m 51.2,0 h -9 c -0.567,0 -1.033,-0.183 -1.4,-0.55 -0.367,-0.367 -0.55,-0.833 -0.55,-1.4 v 0 -35.15 c 0,-0.567 0.183,-1.033 0.55,-1.4 0.367,-0.367 0.833,-0.55 1.4,-0.55 v 0 h 9 c 2.867,0 5.493,0.473 7.88,1.42 2.38,0.953 4.437,2.303 6.17,4.05 1.733,1.753 3.073,3.813 4.02,6.18 0.953,2.367 1.43,4.983 1.43,7.85 v 0 c 0,2.867 -0.477,5.49 -1.43,7.87 -0.947,2.387 -2.287,4.453 -4.02,6.2 -1.733,1.753 -3.79,3.103 -6.17,4.05 C 63.643,-0.477 61.017,0 58.15,0 Z M 51.1,-35.55 V -3.5 h 7.05 c 3.067,0 5.777,-0.693 8.13,-2.08 2.347,-1.38 4.187,-3.28 5.52,-5.7 1.333,-2.413 2,-5.17 2,-8.27 v 0 c 0,-3.1 -0.667,-5.86 -2,-8.28 -1.333,-2.413 -3.173,-4.303 -5.52,-5.67 -2.353,-1.367 -5.063,-2.05 -8.13,-2.05 v 0 z M 109.15,0 H 87.65 C 87.117,0 86.66,-0.183 86.28,-0.55 85.893,-0.917 85.7,-1.383 85.7,-1.95 v 0 -35.15 c 0,-0.533 0.193,-0.993 0.58,-1.38 0.38,-0.38 0.837,-0.57 1.37,-0.57 v 0 c 0.533,0 0.993,0.19 1.38,0.57 0.38,0.387 0.57,0.847 0.57,1.38 v 0 33.4 h 19.55 c 0.533,0 0.993,0.173 1.38,0.52 0.38,0.353 0.57,0.797 0.57,1.33 v 0 c 0,0.533 -0.19,0.973 -0.57,1.32 -0.387,0.353 -0.847,0.53 -1.38,0.53 z"
                   fill="#ffffff"
                   fill-rule="nonzero"
                   stroke="none"
                   stroke-width="1"
                   stroke-linecap="butt"
                   stroke-linejoin="miter"
                   stroke-miterlimit="10"
                   stroke-dasharray="none"
                   stroke-dashoffset="0"
                   font-family="none"
                   font-weight="none"
                   font-size="none"
                   text-anchor="none"
                   style="mix-blend-mode:normal;fill:#ffffff"
                   data-fill-palette-color="primary"
                   opacity="1"
                   id="path6" />
              </g>
            </svg>
          </g>
        </svg>
      </g>
      <g
         transform="translate(0,191.11992)"
         id="g24"
         style="fill:#ffffff">
        <svg
           viewBox="0 0 375.744 57.050876"
           height="57.050877"
           width="375.74399"
           version="1.1"
           id="svg22"
           style="fill:#ffffff">
          <g
             id="g20"
             style="fill:#ffffff">
            <svg
               width="375.74399"
               viewBox="5 -39.549999 265.73999 40.349998"
               height="57.050877"
               data-palette-color="#ffffff"
               version="1.1"
               id="svg18"
               style="fill:#ffffff">
              <path
                 d="M 6.95,0 V 0 Q 6.15,0 5.58,-0.58 5,-1.15 5,-1.95 v 0 -35.15 q 0,-0.85 0.58,-1.4 0.57,-0.55 1.37,-0.55 v 0 q 1.2,0 1.75,1 v 0 l 16.85,33.5 h -1.7 l 16.55,-33.5 q 0.6,-1 1.75,-1 v 0 q 0.8,0 1.35,0.55 0.55,0.55 0.55,1.4 v 0 35.15 q 0,0.8 -0.55,1.37 Q 42.95,0 42.15,0 V 0 Q 41.3,0 40.73,-0.58 40.15,-1.15 40.15,-1.95 v 0 -30.1 L 41,-32 26.25,-1.85 q -0.55,0.95 -1.7,0.95 v 0 q -1.25,0 -1.8,-1.2 v 0 L 7.9,-31.8 l 1,-0.25 v 30.1 q 0,0.8 -0.57,1.37 Q 7.75,0 6.95,0 Z M 72.1,0.5 v 0 q -4.35,0 -8,-1.5 -3.65,-1.5 -6.33,-4.2 -2.67,-2.7 -4.15,-6.35 -1.47,-3.65 -1.47,-8 v 0 q 0,-4.3 1.47,-7.95 1.48,-3.65 4.15,-6.35 2.68,-2.7 6.33,-4.2 3.65,-1.5 8,-1.5 v 0 q 4.3,0 7.95,1.5 3.65,1.5 6.35,4.2 2.7,2.7 4.17,6.35 1.48,3.65 1.48,7.95 v 0 q 0,4.35 -1.48,8 Q 89.1,-7.9 86.4,-5.2 83.7,-2.5 80.05,-1 76.4,0.5 72.1,0.5 Z m 0,-3.7 v 0 q 3.45,0 6.4,-1.22 2.95,-1.23 5.12,-3.46 2.18,-2.22 3.38,-5.2 1.2,-2.97 1.2,-6.47 v 0 q 0,-3.45 -1.2,-6.43 -1.2,-2.97 -3.38,-5.2 -2.17,-2.22 -5.12,-3.45 -2.95,-1.22 -6.4,-1.22 v 0 q -3.5,0 -6.45,1.22 -2.95,1.23 -5.13,3.45 -2.17,2.23 -3.37,5.2 -1.2,2.98 -1.2,6.43 v 0 q 0,3.5 1.2,6.47 1.2,2.98 3.37,5.2 2.18,2.23 5.13,3.46 2.95,1.22 6.45,1.22 z M 111.05,0 h -9 q -0.85,0 -1.4,-0.55 -0.55,-0.55 -0.55,-1.4 v 0 -35.15 q 0,-0.85 0.55,-1.4 0.55,-0.55 1.4,-0.55 v 0 h 9 q 4.3,0 7.87,1.42 3.58,1.43 6.18,4.05 2.6,2.63 4.02,6.18 1.43,3.55 1.43,7.85 v 0 q 0,4.3 -1.43,7.87 -1.42,3.58 -4.02,6.2 -2.6,2.63 -6.18,4.05 Q 115.35,0 111.05,0 Z M 104,-35.55 V -3.5 h 7.05 q 4.6,0 8.12,-2.08 3.53,-2.07 5.53,-5.7 2,-3.62 2,-8.27 v 0 q 0,-4.65 -2,-8.28 -2,-3.62 -5.53,-5.67 -3.52,-2.05 -8.12,-2.05 v 0 z M 154.14,0.8 v 0 q -4.55,0 -8.07,-1.75 -3.53,-1.75 -5.5,-4.85 -1.98,-3.1 -1.98,-7.1 v 0 -24.2 q 0,-0.85 0.55,-1.4 0.55,-0.55 1.4,-0.55 v 0 q 0.85,0 1.4,0.55 0.55,0.55 0.55,1.4 v 0 24.2 q 0,2.95 1.48,5.2 1.47,2.25 4.12,3.53 2.65,1.27 6.05,1.27 v 0 q 3.35,0 5.95,-1.27 2.6,-1.28 4.08,-3.53 1.47,-2.25 1.47,-5.2 v 0 -24.2 q 0,-0.85 0.55,-1.4 0.55,-0.55 1.4,-0.55 v 0 q 0.9,0 1.43,0.55 0.52,0.55 0.52,1.4 v 0 24.2 q 0,4 -1.97,7.1 -1.98,3.1 -5.45,4.85 -3.48,1.75 -7.98,1.75 z M 202.99,0 h -21.5 q -0.8,0 -1.37,-0.55 -0.58,-0.55 -0.58,-1.4 v 0 -35.15 q 0,-0.8 0.58,-1.38 0.57,-0.57 1.37,-0.57 v 0 q 0.8,0 1.38,0.57 0.57,0.58 0.57,1.38 v 0 33.4 h 19.55 q 0.8,0 1.38,0.52 0.57,0.53 0.57,1.33 v 0 q 0,0.8 -0.57,1.32 Q 203.79,0 202.99,0 Z m 33.6,0 h -23.45 q -0.85,0 -1.4,-0.55 -0.55,-0.55 -0.55,-1.4 v 0 -35.15 q 0,-0.85 0.55,-1.4 0.55,-0.55 1.4,-0.55 v 0 h 23.45 q 0.8,0 1.37,0.52 0.58,0.53 0.58,1.38 v 0 q 0,0.75 -0.58,1.3 -0.57,0.55 -1.37,0.55 v 0 h -21.5 v 13.8 h 15.65 q 0.85,0 1.4,0.55 0.55,0.55 0.55,1.35 v 0 q 0,0.8 -0.55,1.35 -0.55,0.55 -1.4,0.55 v 0 h -15.65 v 13.95 h 21.5 q 0.8,0 1.37,0.55 0.58,0.55 0.58,1.3 v 0 q 0,0.85 -0.58,1.37 Q 237.39,0 236.59,0 Z m 21.2,0.5 v 0 q -3.2,0 -5.93,-0.93 -2.72,-0.92 -4.72,-2.62 -2,-1.7 -3.05,-3.95 v 0 q -0.4,-0.8 -0.03,-1.47 0.38,-0.68 1.28,-0.93 v 0 q 0.7,-0.2 1.37,0.15 0.68,0.35 1.03,1.05 v 0 q 0.75,1.45 2.2,2.6 1.45,1.15 3.45,1.77 2,0.63 4.4,0.63 v 0 q 2.65,0 4.7,-0.88 2.05,-0.87 3.22,-2.55 1.18,-1.67 1.18,-4.07 v 0 q 0,-3.05 -2.25,-5.25 -2.25,-2.2 -7.05,-2.8 v 0 q -5.85,-0.7 -9.15,-3.63 -3.3,-2.92 -3.3,-7.17 v 0 q 0,-3.05 1.62,-5.3 1.63,-2.25 4.48,-3.48 2.85,-1.22 6.55,-1.22 v 0 q 2.75,0 5,0.87 2.25,0.88 3.92,2.3 1.68,1.43 2.73,3.13 v 0 q 0.5,0.8 0.32,1.55 -0.17,0.75 -0.87,1.15 v 0 q -0.75,0.35 -1.53,0.1 -0.77,-0.25 -1.17,-0.95 v 0 q -0.75,-1.15 -1.88,-2.18 -1.12,-1.02 -2.72,-1.62 -1.6,-0.6 -3.85,-0.65 v 0 q -3.95,0 -6.35,1.67 -2.4,1.68 -2.4,4.88 v 0 q 0,1.7 0.9,3.12 0.9,1.43 2.97,2.45 2.08,1.03 5.58,1.53 v 0 q 6.25,0.9 9.27,3.82 3.03,2.93 3.03,7.63 v 0 q 0,2.7 -0.98,4.8 -0.97,2.1 -2.75,3.52 -1.77,1.43 -4.15,2.18 -2.37,0.75 -5.07,0.75 z"
                 opacity="1"
                 fill="#ffffff"
                 class="undefined-text-1"
                 data-fill-palette-color="secondary"
                 id="text-1"
                 style="fill:#ffffff" />
            </svg>
          </g>
        </svg>
      </g>
    </svg>
  </g>
  <g
     id="g43"
     transform="matrix(1.030741,0,0,1.0592097,629.2231,361.15392)"
     style="fill:#ffffff">
    <svg
       version="1.1"
       x="0"
       y="0"
       viewBox="2.871521 2.7669625 94.483482 88.090042"
       enable-background="new 0 0 100 100"
       xml:space="preserve"
       height="227.89136"
       width="244.43137"
       class="icon-icon-0"
       data-fill-palette-color="accent"
       id="icon-0"
       style="fill:#ffffff"><path
         d="m 29.421,19.786 c 0,2.725 2.212,4.936 4.937,4.936 2.463,0 3.646,-1.558 4.454,-0.597 0.416,0.495 0.479,1.12 0.479,2.987 v 9.676 l 8.237,0.003 c 1.208,0 1.38,-0.116 1.479,-0.35 0.207,-0.478 -0.218,-1.26 -0.218,-3.059 0,-3.791 4,-6.814 7.511,-6.814 3.505,0 7.501,2.874 7.501,6.814 0,1.799 -0.424,2.578 -0.216,3.059 0.101,0.232 0.272,0.35 1.479,0.35 h 8.233 V 6.801 c 0,0 0.126,-2.123 -0.885,-3.135 C 71.403,2.659 69.011,2.781 69.011,2.781 H 39.292 v 9.68 c 0,1.869 -0.064,2.49 -0.476,2.987 -0.808,0.963 -1.994,-0.596 -4.457,-0.596 -2.726,0 -4.938,2.209 -4.938,4.934 z"
         fill="#00d1cd"
         data-fill-palette-color="accent"
         id="path34"
         style="fill:#ffffff" /><path
         d="m 2.886,36.794 h 9.681 c 1.869,0 2.49,0.061 2.987,0.477 0.964,0.808 -0.596,1.993 -0.596,4.456 0,2.727 2.211,4.938 4.937,4.938 2.722,0 4.933,-2.211 4.933,-4.937 0,-2.462 -1.56,-3.646 -0.595,-4.457 0.494,-0.413 1.118,-0.477 2.986,-0.477 h 9.679 v -8.238 c 0,-1.207 -0.116,-1.379 -0.352,-1.478 -0.477,-0.206 -1.258,0.215 -3.056,0.215 -3.792,0 -6.817,-3.998 -6.817,-7.507 0,-3.507 2.873,-7.505 6.817,-7.505 1.795,0 2.579,0.425 3.056,0.218 0.233,-0.1 0.352,-0.27 0.352,-1.479 V 2.781 H 7.686 c 0,0 -2.827,-0.197 -3.911,0.885 -1.084,1.087 -0.89,3.516 -0.89,3.516 v 29.612 z"
         fill="#00d1cd"
         data-fill-palette-color="accent"
         id="path36"
         style="fill:#ffffff" /><path
         d="m 46.768,56.415 c 0,-2.728 -2.208,-4.937 -4.934,-4.937 -2.464,0 -3.649,1.558 -4.457,0.596 C 36.964,51.577 36.9,50.956 36.9,49.088 v -9.679 l -8.236,-0.004 c -1.208,0 -1.38,0.12 -1.482,0.354 -0.203,0.478 0.218,1.259 0.218,3.057 0,3.79 -4.001,6.814 -7.508,6.814 -3.507,0 -7.505,-2.871 -7.505,-6.814 0,-1.798 0.427,-2.579 0.218,-3.057 -0.099,-0.23 -0.27,-0.35 -1.479,-0.35 h -8.24 v 29.332 c 0,0 -0.055,2.47 1.018,3.537 1.068,1.07 3.506,1.139 3.506,1.139 H 36.9 v -9.678 c 0,-1.867 0.064,-2.492 0.477,-2.986 0.811,-0.965 1.993,0.599 4.457,0.599 2.725,0 4.934,-2.213 4.934,-4.937 z"
         fill="#00d1cd"
         data-fill-palette-color="accent"
         id="path38"
         style="fill:#ffffff" /><path
         d="M 76.521,88.893 97.355,68.061 90.512,61.219 c -1.322,-1.322 -1.719,-1.805 -1.777,-2.45 -0.109,-1.252 1.832,-0.984 3.574,-2.728 1.927,-1.928 1.931,-5.054 0,-6.979 -1.929,-1.929 -5.049,-1.929 -6.978,-0.003 -1.741,1.743 -1.479,3.686 -2.728,3.574 -0.646,-0.055 -1.131,-0.453 -2.452,-1.776 l -6.845,-6.843 -5.826,5.827 c -0.853,0.854 -0.893,1.054 -0.796,1.292 0.19,0.483 1.042,0.735 2.314,2.007 2.683,2.681 1.99,7.648 -0.49,10.13 -2.483,2.48 -7.337,3.274 -10.126,0.485 -1.27,-1.27 -1.522,-2.121 -2.008,-2.316 -0.236,-0.089 -0.439,-0.052 -1.297,0.803 l -5.822,5.825 20.908,20.907 c 0,0 1.642,1.885 3.141,1.883 1.497,0.001 3.217,-1.964 3.217,-1.964 z"
         fill="#00d1cd"
         data-fill-palette-color="accent"
         id="path40"
         style="fill:#ffffff" /></svg>
  </g>
  <rect
     width="697.84894"
     height="256.83127"
     fill="none"
     stroke="none"
     visibility="hidden"
     id="rect57"
     x="336.77429"
     y="454.28555"
     style="stroke-width:1.76438" />
</svg>
